<svg xmlns="http://www.w3.org/2000/svg" viewBox="0 0 100 100" width="100" height="100">
  <!-- Cabeza -->
  <circle cx="50" cy="35" r="18" fill="#FFDBAC" stroke="#D4A574" stroke-width="2"/>
  
  <!-- Cabello -->
  <path d="M32 25 Q50 15 68 25 Q65 35 50 30 Q35 35 32 25" fill="#8B4513"/>
  
  <!-- Ojos -->
  <circle cx="44" cy="32" r="2" fill="#000"/>
  <circle cx="56" cy="32" r="2" fill="#000"/>
  
  <!-- Sonrisa -->
  <path d="M42 40 Q50 45 58 40" stroke="#000" stroke-width="2" fill="none"/>
  
  <!-- Cuerpo -->
  <rect x="40" y="53" width="20" height="30" rx="5" fill="#4A90E2" stroke="#2E5C8A" stroke-width="2"/>
  
  <!-- Brazos -->
  <rect x="35" y="58" width="8" height="20" rx="4" fill="#FFDBAC" stroke="#D4A574" stroke-width="1"/>
  <rect x="57" y="58" width="8" height="20" rx="4" fill="#FFDBAC" stroke="#D4A574" stroke-width="1"/>
  
  <!-- Piernas -->
  <rect x="42" y="83" width="6" height="15" rx="3" fill="#2E5C8A" stroke="#1A4A73" stroke-width="1"/>
  <rect x="52" y="83" width="6" height="15" rx="3" fill="#2E5C8A" stroke="#1A4A73" stroke-width="1"/>
  
  <!-- Zapatos -->
  <ellipse cx="45" cy="99" rx="4" ry="2" fill="#000"/>
  <ellipse cx="55" cy="99" rx="4" ry="2" fill="#000"/>
</svg>
